<svg width="48" height="48" viewBox="0 0 48 48" fill="none" xmlns="http://www.w3.org/2000/svg">
<g clip-path="url(#clip0_2035_88)">
<rect width="48" height="48" fill="#0C0C0C"/>
<path d="M12.6061 28.8825C12.5275 29.1837 12.2187 29.3661 11.924 29.2658C9.8917 28.5736 8.19487 27.0512 7.16003 24.9727C6.03483 22.7127 5.78443 19.9804 6.46391 17.377C7.14339 14.7735 8.69709 12.5121 10.7832 11.0903C12.7018 9.78258 14.9263 9.28353 17.0376 9.67286C17.3437 9.72931 17.524 10.0394 17.4454 10.3406L12.6061 28.8825Z" fill="#D9D9D9"/>
<path d="M31.749 8.75133C32.0687 7.87504 33.308 7.87504 33.6278 8.75133L43.7266 36.4273C43.9646 37.0796 43.4816 37.7701 42.7872 37.7701H22.5896C21.8951 37.7701 21.4121 37.0796 21.6502 36.4273L31.749 8.75133Z" fill="#D9D9D9"/>
<path d="M40.1715 37.8256L28.4053 42.4178L18.0521 35.5295L28.4053 28.6412L40.1715 37.8256Z" fill="#0C0C0C"/>
<mask id="mask0_2035_88" style="mask-type:alpha" maskUnits="userSpaceOnUse" x="5" y="7" width="21" height="34">
<path d="M10.0312 40.3329C8.82224 40.0434 7.71976 39.416 6.72377 38.4506C6.24995 37.9738 5.88868 37.5074 5.63996 37.0514L7.45758 34.2658L7.82027 34.3526C8.05229 34.7716 8.2918 35.1593 8.53879 35.5158C9.09034 36.3086 9.72881 36.7918 10.4542 36.9655C11.8566 37.3014 13.0123 37.0661 13.9213 36.2597C14.8619 35.4279 15.5829 33.9653 16.0842 31.8721L21.8084 7.97108L25.4353 8.8397L19.7111 32.7407C18.9704 35.8337 17.7805 38.0264 16.1416 39.3187C14.5343 40.5855 12.4975 40.9236 10.0312 40.3329Z" fill="#D9D9D9"/>
</mask>
<g mask="url(#mask0_2035_88)">
<rect x="18.4462" y="5.79538" width="9.27264" height="20.558" transform="rotate(8.84509 18.4462 5.79538)" fill="#1F72AE"/>
<rect x="7.0191" y="27.0178" width="15.6718" height="18.5509" transform="rotate(8.84509 7.0191 27.0178)" fill="#D9D9D9"/>
<path d="M15.2851 25.4784H26.6191V29.2997H15.2851V25.4784Z" fill="#0C0C0C"/>
</g>
</g>
<defs>
<clipPath id="clip0_2035_88">
<rect width="48" height="48" fill="white"/>
</clipPath>
</defs>
</svg>
